<svg xmlns="http://www.w3.org/2000/svg" width="466.667" height="466.667" preserveAspectRatio="xMidYMid meet" version="1.0" viewBox="0 0 350 350"><metadata>Created by potrace 1.14, written by Peter Selinger 2001-2017</metadata><g fill="#000" stroke="none"><path d="M921 3420 c-5 -3 -62 -124 -126 -270 -65 -146 -128 -290 -142 -320 -14 -30 -32 -73 -41 -95 -8 -22 -19 -44 -24 -49 -4 -6 -8 -14 -8 -18 0 -5 34 19 76 52 96 76 220 150 340 201 127 54 334 106 334 84 0 -3 -11 -23 -25 -45 -70 -110 -135 -304 -151 -449 -3 -25 -7 -57 -9 -71 -8 -43 -8 -230 -1 -237 4 -4 11 -1 16 7 10 16 32 46 70 96 14 17 34 45 45 60 77 107 123 159 140 159 35 0 18 -33 -103 -199 -151 -206 -172 -237 -168 -245 2 -3 7 -37 11 -76 3 -38 8 -72 11 -76 2 -4 6 -22 9 -40 8 -49 60 -258 66 -264 5 -4 54 124 64 167 8 35 137 425 155 468 19 45 51 62 58 30 1 -8 -20 -83 -48 -165 -28 -83 -53 -157 -55 -165 -2 -8 -20 -62 -40 -120 -20 -58 -37 -109 -39 -115 -1 -5 -17 -53 -34 -106 l-31 -97 25 -51 c13 -29 45 -96 70 -149 65 -138 87 -182 90 -179 2 2 6 21 9 43 4 21 10 66 15 99 5 33 12 78 15 100 3 22 8 49 10 61 3 11 7 43 10 70 6 48 11 84 54 364 33 216 29 202 54 198 18 -2 22 -9 21 -38 0 -35 -11 -126 -19 -171 -3 -13 -7 -41 -10 -64 -4 -22 -8 -51 -10 -65 -2 -14 -7 -45 -10 -70 -3 -25 -10 -67 -15 -95 -5 -27 -11 -68 -14 -90 -5 -42 -34 -244 -41 -281 -5 -31 -19 -137 -19 -149 -1 -12 186 -284 195 -285 3 0 7 24 8 53 2 28 4 72 6 97 1 25 6 92 9 150 4 58 9 130 11 160 2 30 7 102 11 160 3 58 8 123 10 145 2 22 6 92 10 155 3 63 7 129 8 145 2 25 6 30 27 30 23 0 24 -3 23 -55 0 -51 -12 -275 -19 -365 -2 -22 -6 -89 -10 -150 -16 -276 -24 -401 -37 -575 -2 -23 5 -41 25 -61 12 -13 51 -57 86 -97 35 -40 66 -70 69 -67 6 5 8 176 12 810 2 220 5 406 7 413 3 6 14 12 24 12 23 0 21 80 21 -683 1 -475 3 -621 13 -630 37 -36 99 -90 170 -147 44 -36 82 -67 85 -71 20 -21 149 -119 159 -119 25 0 8 20 -52 63 -89 64 -141 166 -161 322 -3 22 -5 697 -6 1500 l0 1461 -640 0 c-352 0 -645 -3 -649 -6z" transform="translate(0.000000,350.000000) scale(0.100000,-0.100000)"/><path d="M2276 3401 c-1 -3 -3 -82 -2 -176 l1 -170 225 -1 c228 -2 311 8 188 21 -74 8 -99 18 -82 35 13 13 238 18 277 6 41 -12 34 8 -21 63 -37 37 -64 53 -118 71 -38 12 -88 33 -111 46 -73 42 -347 123 -357 105z m336 -126 c0 -5 -5 -11 -11 -13 -6 -2 -11 4 -11 13 0 9 5 15 11 13 6 -2 11 -8 11 -13z" transform="translate(0.000000,350.000000) scale(0.100000,-0.100000)"/><path d="M2279 2755 c-7 -34 -2 -245 6 -246 6 -1 64 -2 130 -3 128 -2 134 -3 235 -44 91 -36 94 -39 70 -72 -25 -35 -25 -42 0 -65 22 -20 21 -21 38 17 6 15 22 30 36 34 33 8 143 -50 166 -88 l18 -29 6 26 c11 42 0 58 -62 93 -31 17 -187 111 -345 207 -158 96 -290 175 -292 175 -3 0 -5 -2 -6 -5z" transform="translate(0.000000,350.000000) scale(0.100000,-0.100000)"/></g></svg>